HIERARCHY
ROOT mixamorig:Hips
{
	OFFSET 0.000000 201.639420 0.000000
	CHANNELS 6 Xposition Yposition Zposition Xrotation Yrotation Zrotation
	JOINT mixamorig:Spine
	{
		OFFSET 0.006200 19.524994 -2.481800
		CHANNELS 3 Xrotation Yrotation Zrotation
		JOINT mixamorig:Spine1
		{
			OFFSET -0.000900 22.835007 -2.825400
			CHANNELS 3 Xrotation Yrotation Zrotation
			JOINT mixamorig:Spine2
			{
				OFFSET -0.020600 26.552490 -3.193300
				CHANNELS 3 Xrotation Yrotation Zrotation
				JOINT mixamorig:Neck
				{
					OFFSET -0.060000 30.701813 1.352200
					CHANNELS 3 Xrotation Yrotation Zrotation
					JOINT mixamorig:Head
					{
						OFFSET -0.087200 22.547607 3.670900
						CHANNELS 3 Xrotation Yrotation Zrotation
						JOINT mixamorig:HeadTop_End
						{
							OFFSET -0.830600 40.355194 7.893500
							CHANNELS 3 Xrotation Yrotation Zrotation
							End Site
							{
								OFFSET 0.000000 30.592346 0.000000
							}
						}
						JOINT mixamorig:RightEye
						{
							OFFSET -6.302100 18.118591 16.197100
							CHANNELS 3 Xrotation Yrotation Zrotation
							End Site
							{
								OFFSET 0.000000 30.592346 0.000000
							}
						}
						JOINT mixamorig:LeftEye
						{
							OFFSET 6.741500 18.382690 16.401899
							CHANNELS 3 Xrotation Yrotation Zrotation
							End Site
							{
								OFFSET 0.000000 30.592346 0.000000
							}
						}
					}
				}
				JOINT mixamorig:LeftShoulder
				{
					OFFSET 11.924900 18.230499 1.425400
					CHANNELS 3 Xrotation Yrotation Zrotation
					JOINT mixamorig:LeftArm
					{
						OFFSET 25.435989 -0.697632 -5.229300
						CHANNELS 3 Xrotation Yrotation Zrotation
						JOINT mixamorig:LeftForeArm
						{
							OFFSET 54.684776 0.000000 0.000000
							CHANNELS 3 Xrotation Yrotation Zrotation
							JOINT mixamorig:LeftHand
							{
								OFFSET 55.098175 0.000000 0.000000
								CHANNELS 3 Xrotation Yrotation Zrotation
								JOINT mixamorig:LeftHandMiddle1
								{
									OFFSET 23.369751 0.000000 0.000000
									CHANNELS 3 Xrotation Yrotation Zrotation
									JOINT mixamorig:LeftHandMiddle2
									{
										OFFSET 6.378677 0.000000 0.000000
										CHANNELS 3 Xrotation Yrotation Zrotation
										JOINT mixamorig:LeftHandMiddle3
										{
											OFFSET 6.148331 0.000000 0.000000
											CHANNELS 3 Xrotation Yrotation Zrotation
											JOINT mixamorig:LeftHandMiddle4
											{
												OFFSET 6.582504 0.000000 0.000000
												CHANNELS 3 Xrotation Yrotation Zrotation
												End Site
												{
													OFFSET -1.168900 6.395691 1.028606
												}
											}
										}
									}
								}
								JOINT mixamorig:LeftHandThumb1
								{
									OFFSET 7.235672 -3.848206 5.434273
									CHANNELS 3 Xrotation Yrotation Zrotation
									JOINT mixamorig:LeftHandThumb2
									{
										OFFSET 6.568451 -3.792297 3.792300
										CHANNELS 3 Xrotation Yrotation Zrotation
										JOINT mixamorig:LeftHandThumb3
										{
											OFFSET 6.063080 -3.500519 3.500518
											CHANNELS 3 Xrotation Yrotation Zrotation
											JOINT mixamorig:LeftHandThumb4
											{
												OFFSET 4.793182 -2.767334 2.767349
												CHANNELS 3 Xrotation Yrotation Zrotation
												End Site
												{
													OFFSET 0.101639 6.054260 1.275483
												}
											}
										}
									}
								}
								JOINT mixamorig:LeftHandIndex1
								{
									OFFSET 23.101074 -0.309540 4.992809
									CHANNELS 3 Xrotation Yrotation Zrotation
									JOINT mixamorig:LeftHandIndex2
									{
										OFFSET 6.226883 0.000000 0.000000
										CHANNELS 3 Xrotation Yrotation Zrotation
										JOINT mixamorig:LeftHandIndex3
										{
											OFFSET 6.094330 0.000000 0.000000
											CHANNELS 3 Xrotation Yrotation Zrotation
											JOINT mixamorig:LeftHandIndex4
											{
												OFFSET 5.482605 0.000000 0.000000
												CHANNELS 3 Xrotation Yrotation Zrotation
												End Site
												{
													OFFSET -1.427902 5.233032 0.797164
												}
											}
										}
									}
								}
								JOINT mixamorig:LeftHandRing1
								{
									OFFSET 22.299240 0.021149 -3.964172
									CHANNELS 3 Xrotation Yrotation Zrotation
									JOINT mixamorig:LeftHandRing2
									{
										OFFSET 6.321869 0.000000 0.000000
										CHANNELS 3 Xrotation Yrotation Zrotation
										JOINT mixamorig:LeftHandRing3
										{
											OFFSET 5.899796 0.000000 0.000000
											CHANNELS 3 Xrotation Yrotation Zrotation
											JOINT mixamorig:LeftHandRing4
											{
												OFFSET 6.517899 0.000000 0.000000
												CHANNELS 3 Xrotation Yrotation Zrotation
												End Site
												{
													OFFSET -1.637299 6.232208 0.980890
												}
											}
										}
									}
								}
								JOINT mixamorig:LeftHandPinky1
								{
									OFFSET 20.463791 -0.302338 -8.562233
									CHANNELS 3 Xrotation Yrotation Zrotation
									JOINT mixamorig:LeftHandPinky2
									{
										OFFSET 6.908646 0.000000 0.000000
										CHANNELS 3 Xrotation Yrotation Zrotation
										JOINT mixamorig:LeftHandPinky3
										{
											OFFSET 4.622849 0.000000 0.000000
											CHANNELS 3 Xrotation Yrotation Zrotation
											JOINT mixamorig:LeftHandPinky4
											{
												OFFSET 5.216080 0.000000 0.000000
												CHANNELS 3 Xrotation Yrotation Zrotation
												End Site
												{
													OFFSET -0.606308 5.116241 0.814926
												}
											}
										}
									}
								}
							}
						}
					}
				}
				JOINT mixamorig:RightShoulder
				{
					OFFSET -12.001300 18.284088 1.348900
					CHANNELS 3 Xrotation Yrotation Zrotation
					JOINT mixamorig:RightArm
					{
						OFFSET -25.308500 -0.751312 -5.164599
						CHANNELS 3 Xrotation Yrotation Zrotation
						JOINT mixamorig:RightForeArm
						{
							OFFSET -54.684429 0.000000 0.000000
							CHANNELS 3 Xrotation Yrotation Zrotation
							JOINT mixamorig:RightHand
							{
								OFFSET -55.150291 0.000000 0.000000
								CHANNELS 3 Xrotation Yrotation Zrotation
								JOINT mixamorig:RightHandMiddle1
								{
									OFFSET -23.317566 0.000000 0.000000
									CHANNELS 3 Xrotation Yrotation Zrotation
									JOINT mixamorig:RightHandMiddle2
									{
										OFFSET -6.378403 0.000000 0.000000
										CHANNELS 3 Xrotation Yrotation Zrotation
										JOINT mixamorig:RightHandMiddle3
										{
											OFFSET -6.148193 0.000000 0.000000
											CHANNELS 3 Xrotation Yrotation Zrotation
											JOINT mixamorig:RightHandMiddle4
											{
												OFFSET -6.583389 0.000000 0.000000
												CHANNELS 3 Xrotation Yrotation Zrotation
												End Site
												{
													OFFSET 1.171692 6.395905 1.029786
												}
											}
										}
									}
								}
								JOINT mixamorig:RightHandThumb1
								{
									OFFSET -7.190521 -3.860474 5.435846
									CHANNELS 3 Xrotation Yrotation Zrotation
									JOINT mixamorig:RightHandThumb2
									{
										OFFSET -6.567429 -3.791718 3.791708
										CHANNELS 3 Xrotation Yrotation Zrotation
										JOINT mixamorig:RightHandThumb3
										{
											OFFSET -6.062469 -3.500153 3.500166
											CHANNELS 3 Xrotation Yrotation Zrotation
											JOINT mixamorig:RightHandThumb4
											{
												OFFSET -4.792618 -2.767029 2.767022
												CHANNELS 3 Xrotation Yrotation Zrotation
												End Site
												{
													OFFSET -0.100327 6.053253 1.276754
												}
											}
										}
									}
								}
								JOINT mixamorig:RightHandIndex1
								{
									OFFSET -23.048981 -0.310791 4.992554
									CHANNELS 3 Xrotation Yrotation Zrotation
									JOINT mixamorig:RightHandIndex2
									{
										OFFSET -6.227539 0.000000 0.000000
										CHANNELS 3 Xrotation Yrotation Zrotation
										JOINT mixamorig:RightHandIndex3
										{
											OFFSET -6.095047 0.000000 0.000000
											CHANNELS 3 Xrotation Yrotation Zrotation
											JOINT mixamorig:RightHandIndex4
											{
												OFFSET -5.484772 0.000000 0.000000
												CHANNELS 3 Xrotation Yrotation Zrotation
												End Site
												{
													OFFSET 1.420593 5.237305 0.797056
												}
											}
										}
									}
								}
								JOINT mixamorig:RightHandRing1
								{
									OFFSET -22.246323 0.020569 -3.963762
									CHANNELS 3 Xrotation Yrotation Zrotation
									JOINT mixamorig:RightHandRing2
									{
										OFFSET -6.322128 0.000000 0.000000
										CHANNELS 3 Xrotation Yrotation Zrotation
										JOINT mixamorig:RightHandRing3
										{
											OFFSET -5.900024 0.000000 0.000000
											CHANNELS 3 Xrotation Yrotation Zrotation
											JOINT mixamorig:RightHandRing4
											{
												OFFSET -6.518356 0.000000 0.000000
												CHANNELS 3 Xrotation Yrotation Zrotation
												End Site
												{
													OFFSET 1.636398 6.232697 0.982186
												}
											}
										}
									}
								}
								JOINT mixamorig:RightHandPinky1
								{
									OFFSET -20.411011 -0.303314 -8.561701
									CHANNELS 3 Xrotation Yrotation Zrotation
									JOINT mixamorig:RightHandPinky2
									{
										OFFSET -6.907349 0.000000 0.000000
										CHANNELS 3 Xrotation Yrotation Zrotation
										JOINT mixamorig:RightHandPinky3
										{
											OFFSET -4.623840 0.000000 0.000000
											CHANNELS 3 Xrotation Yrotation Zrotation
											JOINT mixamorig:RightHandPinky4
											{
												OFFSET -5.218353 0.000000 0.000000
												CHANNELS 3 Xrotation Yrotation Zrotation
												End Site
												{
													OFFSET 0.602097 5.118835 0.816273
												}
											}
										}
									}
								}
							}
						}
					}
				}
			}
		}
	}
	JOINT mixamorig:LeftUpLeg
	{
		OFFSET 18.168400 -13.561905 -0.039000
		CHANNELS 3 Xrotation Yrotation Zrotation
		JOINT mixamorig:LeftLeg
		{
			OFFSET 0.577358 -80.825211 -3.695000
			CHANNELS 3 Xrotation Yrotation Zrotation
			JOINT mixamorig:LeftFoot
			{
				OFFSET -0.577356 -83.370262 -6.520700
				CHANNELS 3 Xrotation Yrotation Zrotation
				JOINT mixamorig:LeftToeBase
				{
					OFFSET 0.750401 -20.798306 25.135401
					CHANNELS 3 Xrotation Yrotation Zrotation
					JOINT mixamorig:LeftToe_End
					{
						OFFSET -0.000500 0.001200 19.917799
						CHANNELS 3 Xrotation Yrotation Zrotation
						End Site
						{
							OFFSET 0.000000 19.917805 0.000000
						}
					}
				}
			}
		}
	}
	JOINT mixamorig:RightUpLeg
	{
		OFFSET -18.162500 -13.585098 -0.041000
		CHANNELS 3 Xrotation Yrotation Zrotation
		JOINT mixamorig:RightLeg
		{
			OFFSET -0.595024 -80.945297 -3.631900
			CHANNELS 3 Xrotation Yrotation Zrotation
			JOINT mixamorig:RightFoot
			{
				OFFSET 0.595024 -83.218193 -6.561200
				CHANNELS 3 Xrotation Yrotation Zrotation
				JOINT mixamorig:RightToeBase
				{
					OFFSET -0.753601 -20.807106 25.115000
					CHANNELS 3 Xrotation Yrotation Zrotation
					JOINT mixamorig:RightToe_End
					{
						OFFSET 0.000299 0.001700 19.918200
						CHANNELS 3 Xrotation Yrotation Zrotation
						End Site
						{
							OFFSET 0.000000 19.918203 0.000000
						}
					}
				}
			}
		}
	}
}
MOTION
Frames: 4
Frame Time: 0.033333
6.576129 116.887909 -11.305351 -27.947169 5.664750 -3.055706 6.594619 3.182583 -0.741045 13.250432 6.276618 -1.732974 13.250428 6.276621 -1.732969 24.417822 -3.422402 -6.855545 10.078263 -15.538433 4.649701 0.000002 -0.000001 -0.000001 0.000002 -0.000001 -0.000001 0.000002 -0.000001 -0.000001 -0.551389 -3.591903 -24.996652 16.831456 -36.231227 -18.098056 4.162855 -45.053840 1.347969 6.661469 6.608015 28.170284 -10.807718 11.668955 -56.236465 -1.286848 -2.705391 -43.350815 0.000003 -0.000000 0.000001 0.000004 0.000004 0.000001 -3.285739 -12.241732 16.851880 -7.763844 31.105983 -30.419105 0.000012 0.000001 0.000005 0.000002 -0.000003 0.000002 -2.292808 3.037125 -55.550390 -8.059694 -3.835481 -51.351449 0.000001 0.000004 0.000001 -0.000000 -0.000001 -0.000002 -11.284930 24.030509 -58.684835 -1.555228 -4.102635 -47.111247 0.000004 -0.000005 -0.000012 -0.000003 -0.000000 -0.000001 -14.270222 25.398029 -64.710196 -0.650875 -6.007912 -26.991844 0.000004 -0.000001 -0.000001 -0.000003 -0.000001 0.000001 0.601617 12.736992 18.685504 -37.236678 20.401987 56.640819 -13.964674 21.250146 5.102112 -7.028335 11.329832 17.037885 -1.698625 1.733442 36.479395 -1.869116 2.604870 61.731981 0.000006 -0.000008 0.000009 0.000000 0.000000 -0.000002 70.372525 22.102506 -26.733572 0.948816 -1.752328 10.545967 0.000001 0.000011 -0.000003 -0.000001 0.000000 -0.000000 -0.456332 0.495297 32.484407 0.544910 -2.021362 43.733882 0.000000 0.000001 -0.000002 -0.000002 0.000001 0.000000 -5.784656 -1.812643 42.441262 -3.025817 5.781550 59.411198 -0.000019 0.000004 -0.000001 0.000000 -0.000000 -0.000003 -12.522587 -4.333445 50.373041 -4.064287 10.922170 54.054718 -0.000007 0.000003 -0.000003 -0.000001 -0.000001 -0.000001 -70.823133 -6.388168 2.745775 101.261482 -2.351960 -2.944554 8.129715 -16.081727 -1.298709 -18.960141 -0.169541 0.616450 0.000001 0.000000 -0.000000 -64.202043 6.678492 -14.888996 95.089982 1.068011 2.877045 6.357518 9.982179 8.456712 -5.120776 -0.146280 -1.426726 0.000000 -0.000000 0.000000 
6.916172 117.380783 -11.030266 -27.751019 5.553111 -3.950754 6.211284 3.184461 -0.278489 12.470211 6.259187 -0.951454 12.470210 6.259182 -0.951452 21.204017 -2.578824 0.314905 9.308560 -15.050885 10.169486 -0.000001 0.000001 -0.000000 -0.000001 0.000001 -0.000000 -0.000001 0.000001 -0.000000 -0.516508 -4.190579 -26.562305 18.300402 -34.936349 -17.714780 3.445931 -44.990572 0.834191 7.020042 6.850626 28.416731 -10.929545 11.883327 -56.573764 -1.296901 -2.715989 -43.529520 -0.000006 0.000008 0.000002 -0.000000 0.000002 0.000001 -3.285546 -12.186786 16.792495 -8.017915 31.000272 -30.138941 0.000013 0.000001 0.000003 -0.000002 0.000004 -0.000002 -2.382476 3.084743 -55.890318 -8.199470 -3.888589 -51.507788 0.000005 -0.000003 0.000001 0.000001 0.000001 0.000001 -11.348241 24.357822 -58.943624 -1.564185 -4.110929 -47.254835 0.000003 -0.000005 -0.000007 -0.000004 -0.000002 -0.000002 -14.362404 25.703706 -65.055257 -0.633337 -5.959600 -26.579917 -0.000001 -0.000000 0.000004 0.000001 0.000001 0.000001 0.554052 12.551241 20.602784 -36.989344 17.662178 55.362679 -14.162695 23.288662 5.650819 -5.142134 9.663819 17.487202 -1.675498 2.092105 36.814815 -1.897028 2.619883 62.242906 0.000005 -0.000007 0.000007 0.000002 -0.000001 0.000001 68.340025 22.140075 -25.390702 0.990085 -1.940783 10.034832 0.000001 0.000011 -0.000002 0.000000 0.000004 0.000002 -0.332197 0.693383 32.694319 0.550700 -2.063161 44.794638 -0.000002 0.000001 -0.000001 -0.000002 0.000000 -0.000000 -5.559725 -1.247829 43.024987 -3.007461 5.770876 59.212440 -0.000017 0.000004 -0.000003 -0.000001 -0.000002 0.000002 -12.084959 -3.588958 50.642615 -3.906572 10.831485 52.977843 -0.000007 0.000002 0.000004 0.000000 0.000000 0.000001 -70.747065 -7.591422 2.387358 101.378954 -2.251340 -2.938605 7.573006 -15.653310 -1.866147 -19.043326 -0.169481 0.617530 -0.000000 -0.000000 0.000000 -63.104992 4.980288 -15.763964 94.156664 1.666191 2.907631 4.026889 10.865185 8.607690 -4.701270 -0.127838 -2.068221 0.000000 -0.000000 0.000000 
6.698396 117.731674 -10.808327 -27.070659 5.451816 -4.563426 5.797480 3.130007 0.081535 11.631623 6.124713 -0.345904 11.631631 6.124713 -0.345909 16.202775 -1.887644 5.484882 6.694728 -12.171610 15.249545 -0.000000 0.000000 -0.000000 -0.000000 0.000000 -0.000000 -0.000000 0.000000 -0.000000 -0.496013 -4.479531 -27.570533 18.964036 -33.797695 -18.066250 2.634756 -44.580880 0.233571 7.776431 6.629301 28.611777 -11.046125 12.093918 -56.902487 -1.306688 -2.726283 -43.703683 -0.000003 0.000003 -0.000001 0.000002 -0.000000 -0.000000 -3.284672 -12.125902 16.728059 -8.264829 30.896508 -29.866679 0.000002 0.000001 0.000006 0.000001 -0.000001 -0.000000 -2.469380 3.132103 -56.221613 -8.336009 -3.939683 -51.660303 -0.000001 0.000004 0.000004 -0.000002 0.000000 -0.000001 -11.407018 24.677682 -59.196075 -1.572926 -4.118964 -47.394775 -0.000002 -0.000004 -0.000009 -0.000001 0.000000 0.000002 -14.448813 26.003186 -65.392388 -0.616815 -5.912224 -26.178577 -0.000007 0.000002 0.000010 0.000004 0.000002 0.000001 0.578049 12.085724 22.453188 -36.476629 15.675730 54.677457 -14.391683 25.286880 6.210142 -3.953193 9.083494 16.196696 -1.655127 2.482059 37.177847 -1.927528 2.635877 62.797989 0.000007 -0.000009 0.000011 0.000001 0.000000 0.000001 66.133409 22.144144 -23.925330 1.045467 -2.160203 9.475450 0.000001 0.000008 -0.000005 -0.000002 0.000001 0.000001 -0.199031 0.909594 32.921450 0.560427 -2.107006 45.946997 0.000001 0.000002 -0.000001 0.000001 -0.000001 0.000001 -5.327945 -0.628655 43.653392 -2.987585 5.759248 58.996531 -0.000019 0.000004 -0.000003 -0.000002 -0.000001 0.000005 -11.617400 -2.775827 50.926246 -3.738135 10.727768 51.809017 -0.000008 -0.000002 0.000005 -0.000001 -0.000000 -0.000000 -71.257881 -8.475525 2.141571 101.445958 -2.216132 -2.936895 7.206059 -15.239858 -2.262316 -19.180493 -0.171227 0.624612 -0.000000 0.000000 0.000001 -62.469805 3.123552 -16.440861 93.696002 1.979027 2.920293 -0.169391 11.690921 5.988234 -2.732355 -0.193879 -0.000851 0.000000 -0.000000 -0.000000 
5.921075 117.725876 -10.751831 -26.346895 5.263036 -4.496711 5.537966 3.053931 0.213918 11.105920 5.968472 -0.095626 11.105920 5.968470 -0.095622 11.358281 -1.689077 7.331172 1.919834 -10.144179 19.327048 -0.000001 -0.000000 -0.000000 -0.000001 -0.000000 -0.000000 -0.000001 -0.000000 -0.000000 -0.559844 -4.911940 -27.812547 19.627216 -33.105490 -17.987590 1.893830 -43.812737 -0.319875 7.545009 5.878496 29.101100 -11.157434 12.300282 -57.222208 -1.316277 -2.736269 -43.873146 -0.000002 0.000002 -0.000003 0.000002 -0.000000 0.000000 -3.283022 -12.058858 16.658495 -8.504386 30.794799 -29.602569 0.000018 -0.000001 0.000001 0.000004 -0.000001 0.000002 -2.553452 3.179067 -56.543926 -8.469159 -3.988746 -51.808791 0.000001 -0.000001 0.000000 -0.000000 0.000001 -0.000000 -11.461396 24.989712 -59.441948 -1.581477 -4.126748 -47.530890 0.000000 -0.000006 -0.000012 -0.000001 -0.000000 0.000002 -14.529544 26.296008 -65.721159 -0.601195 -5.865830 -25.788146 0.000000 -0.000001 0.000006 -0.000005 -0.000001 0.000002 0.644771 11.673308 23.365814 -36.267584 14.562945 54.872384 -14.552816 26.528591 6.568989 -2.733757 8.998641 14.619171 -1.638702 2.899263 37.564446 -1.960266 2.652677 63.391279 0.000008 -0.000008 0.000006 -0.000001 -0.000000 0.000001 63.778169 22.106068 -22.352887 1.105346 -2.394667 8.877139 0.000003 0.000009 -0.000005 0.000000 -0.000001 -0.000001 -0.058459 1.141936 33.163205 0.574651 -2.151825 47.178815 -0.000002 0.000001 -0.000001 -0.000000 0.000001 -0.000000 -5.094529 0.039383 44.318741 -2.966390 5.746782 58.765725 -0.000019 0.000006 -0.000002 -0.000001 0.000000 -0.000005 -11.126230 -1.901723 51.218916 -3.561543 10.611011 50.560779 -0.000008 0.000001 -0.000002 0.000001 0.000002 0.000000 -72.095918 -8.408584 2.016440 101.459325 -2.062885 -2.935655 7.755308 -14.595535 -1.924168 -18.983239 -0.169435 0.616487 -0.000001 0.000000 0.000000 -62.953615 2.380267 -17.051267 93.988922 2.227007 2.938066 -2.942516 12.190814 4.685669 -1.493379 -0.186605 0.434987 -0.000000 0.000000 0.000000 
